<svg width="216" height="112" viewBox="0 0 216 112" fill="none" xmlns="http://www.w3.org/2000/svg">
<rect y="31.7969" width="12" height="12" rx="6" fill="#0082FF"/>
<path d="M31.7727 35.7969H30.3636C30.2803 35.3916 30.1345 35.0355 29.9261 34.7287C29.7216 34.4219 29.4716 34.1643 29.1761 33.956C28.8845 33.7438 28.5606 33.5848 28.2045 33.4787C27.8485 33.3726 27.4773 33.3196 27.0909 33.3196C26.3864 33.3196 25.7481 33.4976 25.1761 33.8537C24.608 34.2098 24.1553 34.7344 23.8182 35.4276C23.4848 36.1207 23.3182 36.9711 23.3182 37.9787C23.3182 38.9863 23.4848 39.8366 23.8182 40.5298C24.1553 41.223 24.608 41.7476 25.1761 42.1037C25.7481 42.4598 26.3864 42.6378 27.0909 42.6378C27.4773 42.6378 27.8485 42.5848 28.2045 42.4787C28.5606 42.3726 28.8845 42.2154 29.1761 42.0071C29.4716 41.795 29.7216 41.5355 29.9261 41.2287C30.1345 40.9181 30.2803 40.562 30.3636 40.1605H31.7727C31.6667 40.7552 31.4735 41.2874 31.1932 41.7571C30.9129 42.2268 30.5644 42.6264 30.1477 42.956C29.7311 43.2817 29.2633 43.5298 28.7443 43.7003C28.2292 43.8707 27.678 43.956 27.0909 43.956C26.0985 43.956 25.2159 43.7135 24.4432 43.2287C23.6705 42.7438 23.0625 42.0545 22.6193 41.1605C22.1761 40.2666 21.9545 39.206 21.9545 37.9787C21.9545 36.7514 22.1761 35.6908 22.6193 34.7969C23.0625 33.9029 23.6705 33.2135 24.4432 32.7287C25.2159 32.2438 26.0985 32.0014 27.0909 32.0014C27.678 32.0014 28.2292 32.0866 28.7443 32.2571C29.2633 32.4276 29.7311 32.6776 30.1477 33.0071C30.5644 33.3329 30.9129 33.7306 31.1932 34.2003C31.4735 34.6662 31.6667 35.1984 31.7727 35.7969ZM33.8679 43.7969V35.0696H35.1634V36.3878H35.2543C35.4134 35.956 35.7012 35.6056 36.1179 35.3366C36.5346 35.0677 37.0043 34.9332 37.527 34.9332C37.6255 34.9332 37.7486 34.9351 37.8963 34.9389C38.044 34.9427 38.1558 34.9484 38.2315 34.956V36.3196C38.1861 36.3082 38.0819 36.2912 37.919 36.2685C37.7599 36.242 37.5914 36.2287 37.4134 36.2287C36.9891 36.2287 36.6103 36.3177 36.277 36.4957C35.9474 36.67 35.6861 36.9124 35.4929 37.223C35.3035 37.5298 35.2088 37.8802 35.2088 38.2741V43.7969H33.8679ZM43.1009 43.9787C42.313 43.9787 41.6217 43.7912 41.027 43.4162C40.4361 43.0412 39.974 42.5166 39.6406 41.8423C39.3111 41.1681 39.1463 40.3802 39.1463 39.4787C39.1463 38.5696 39.3111 37.776 39.6406 37.098C39.974 36.42 40.4361 35.8935 41.027 35.5185C41.6217 35.1435 42.313 34.956 43.1009 34.956C43.8887 34.956 44.5781 35.1435 45.169 35.5185C45.7637 35.8935 46.2259 36.42 46.5554 37.098C46.8887 37.776 47.0554 38.5696 47.0554 39.4787C47.0554 40.3802 46.8887 41.1681 46.5554 41.8423C46.2259 42.5166 45.7637 43.0412 45.169 43.4162C44.5781 43.7912 43.8887 43.9787 43.1009 43.9787ZM43.1009 42.7741C43.6993 42.7741 44.1918 42.6207 44.5781 42.3139C44.9645 42.0071 45.2505 41.6037 45.4361 41.1037C45.6217 40.6037 45.7145 40.062 45.7145 39.4787C45.7145 38.8954 45.6217 38.3518 45.4361 37.848C45.2505 37.3442 44.9645 36.937 44.5781 36.6264C44.1918 36.3158 43.6993 36.1605 43.1009 36.1605C42.5024 36.1605 42.0099 36.3158 41.6236 36.6264C41.2372 36.937 40.9512 37.3442 40.7656 37.848C40.58 38.3518 40.4872 38.8954 40.4872 39.4787C40.4872 40.062 40.58 40.6037 40.7656 41.1037C40.9512 41.6037 41.2372 42.0071 41.6236 42.3139C42.0099 42.6207 42.5024 42.7741 43.1009 42.7741ZM50.7827 43.7969L48.1236 35.0696H49.5327L51.419 41.7514H51.5099L53.3736 35.0696H54.8054L56.6463 41.7287H56.7372L58.6236 35.0696H60.0327L57.3736 43.7969H56.0554L54.1463 37.0923H54.0099L52.1009 43.7969H50.7827ZM64.804 43.9787C64.0767 43.9787 63.4347 43.795 62.8778 43.4276C62.321 43.0563 61.8854 42.5336 61.571 41.8594C61.2566 41.1813 61.0994 40.3802 61.0994 39.456C61.0994 38.5393 61.2566 37.7438 61.571 37.0696C61.8854 36.3954 62.3229 35.8745 62.8835 35.5071C63.4441 35.1397 64.0919 34.956 64.8267 34.956C65.3949 34.956 65.8438 35.0507 66.1733 35.2401C66.5066 35.4257 66.7604 35.6378 66.9347 35.8764C67.1127 36.1113 67.2509 36.3045 67.3494 36.456H67.4631V32.1605H68.804V43.7969H67.5085V42.456H67.3494C67.2509 42.6151 67.1108 42.8158 66.929 43.0582C66.7472 43.2969 66.4877 43.5109 66.1506 43.7003C65.8134 43.8859 65.3646 43.9787 64.804 43.9787ZM64.9858 42.7741C65.5237 42.7741 65.9782 42.634 66.3494 42.3537C66.7206 42.0696 67.0028 41.6776 67.196 41.1776C67.3892 40.6738 67.4858 40.0923 67.4858 39.4332C67.4858 38.7817 67.3911 38.2116 67.2017 37.723C67.0123 37.2306 66.732 36.848 66.3608 36.5753C65.9896 36.2988 65.5313 36.1605 64.9858 36.1605C64.4176 36.1605 63.9441 36.3063 63.5653 36.598C63.1903 36.8859 62.9081 37.2779 62.7188 37.7741C62.5331 38.2666 62.4403 38.8196 62.4403 39.4332C62.4403 40.0545 62.535 40.6188 62.7244 41.1264C62.9176 41.6302 63.2017 42.0317 63.5767 42.331C63.9555 42.6264 64.4252 42.7741 64.9858 42.7741ZM77.6278 37.0241L76.4233 37.3651C76.3475 37.1643 76.2358 36.9692 76.0881 36.7798C75.9441 36.5866 75.7472 36.4276 75.4972 36.3026C75.2472 36.1776 74.9271 36.1151 74.5369 36.1151C74.0028 36.1151 73.5578 36.2382 73.2017 36.4844C72.8494 36.7268 72.6733 37.0355 72.6733 37.4105C72.6733 37.7438 72.7945 38.0071 73.0369 38.2003C73.2794 38.3935 73.6581 38.5545 74.1733 38.6832L75.4688 39.0014C76.2491 39.1908 76.8305 39.4806 77.2131 39.8707C77.5956 40.2571 77.7869 40.7552 77.7869 41.3651C77.7869 41.8651 77.643 42.312 77.3551 42.706C77.071 43.0999 76.6733 43.4105 76.1619 43.6378C75.6506 43.8651 75.0559 43.9787 74.3778 43.9787C73.4877 43.9787 72.7509 43.7855 72.1676 43.3991C71.5843 43.0128 71.215 42.4484 71.0597 41.706L72.3324 41.3878C72.4536 41.8575 72.6828 42.2098 73.0199 42.4446C73.3608 42.6795 73.8059 42.7969 74.3551 42.7969C74.9801 42.7969 75.4763 42.6643 75.8438 42.3991C76.215 42.1302 76.4006 41.8082 76.4006 41.4332C76.4006 41.1302 76.2945 40.8764 76.0824 40.6719C75.8703 40.4635 75.5445 40.3082 75.1051 40.206L73.6506 39.8651C72.8513 39.6757 72.2642 39.3821 71.8892 38.9844C71.518 38.5829 71.3324 38.081 71.3324 37.4787C71.3324 36.9863 71.4706 36.5507 71.7472 36.1719C72.0275 35.7931 72.4081 35.4957 72.8892 35.2798C73.3741 35.0639 73.9233 34.956 74.5369 34.956C75.4006 34.956 76.0786 35.1454 76.571 35.5241C77.0672 35.9029 77.4195 36.4029 77.6278 37.0241ZM82.3736 44.0014C81.8205 44.0014 81.3187 43.8973 80.8679 43.6889C80.4171 43.4768 80.0592 43.1719 79.794 42.7741C79.5289 42.3726 79.3963 41.8878 79.3963 41.3196C79.3963 40.8196 79.4948 40.4143 79.6918 40.1037C79.8887 39.7893 80.152 39.5431 80.4815 39.3651C80.8111 39.187 81.1747 39.0545 81.5724 38.9673C81.974 38.8764 82.3774 38.8045 82.7827 38.7514C83.313 38.6832 83.7429 38.6321 84.0724 38.598C84.4058 38.5601 84.6482 38.4976 84.7997 38.4105C84.955 38.3234 85.0327 38.1719 85.0327 37.956V37.9105C85.0327 37.3499 84.8793 36.9143 84.5724 36.6037C84.2694 36.2931 83.8092 36.1378 83.1918 36.1378C82.5516 36.1378 82.0497 36.2779 81.6861 36.5582C81.3224 36.8385 81.0668 37.1378 80.919 37.456L79.6463 37.0014C79.8736 36.4711 80.1766 36.0582 80.5554 35.7628C80.938 35.4635 81.3546 35.2552 81.8054 35.1378C82.2599 35.0166 82.7069 34.956 83.1463 34.956C83.4266 34.956 83.7486 34.9901 84.1122 35.0582C84.4796 35.1226 84.8338 35.2571 85.1747 35.4616C85.5194 35.6662 85.8054 35.9749 86.0327 36.3878C86.2599 36.8007 86.3736 37.3537 86.3736 38.0469V43.7969H85.0327V42.6151H84.9645C84.8736 42.8045 84.7221 43.0071 84.5099 43.223C84.2978 43.4389 84.0156 43.6226 83.6634 43.7741C83.3111 43.9257 82.8812 44.0014 82.3736 44.0014ZM82.5781 42.7969C83.1084 42.7969 83.5554 42.6927 83.919 42.4844C84.2865 42.276 84.563 42.0071 84.7486 41.6776C84.938 41.348 85.0327 41.0014 85.0327 40.6378V39.4105C84.9759 39.4787 84.8509 39.5412 84.6577 39.598C84.4683 39.651 84.2486 39.6984 83.9986 39.7401C83.7524 39.7779 83.5118 39.812 83.277 39.8423C83.0459 39.8688 82.8584 39.8916 82.7145 39.9105C82.366 39.956 82.0402 40.0298 81.7372 40.1321C81.438 40.2306 81.1955 40.3802 81.0099 40.581C80.8281 40.7779 80.7372 41.0469 80.7372 41.3878C80.7372 41.8537 80.9096 42.206 81.2543 42.4446C81.6027 42.6795 82.044 42.7969 82.5781 42.7969ZM90.1619 32.1605V43.7969H88.821V32.1605H90.1619ZM96.277 43.9787C95.4361 43.9787 94.7107 43.7931 94.1009 43.4219C93.4948 43.0469 93.027 42.5241 92.6974 41.8537C92.3717 41.1795 92.2088 40.3954 92.2088 39.5014C92.2088 38.6075 92.3717 37.8196 92.6974 37.1378C93.027 36.4522 93.4853 35.9181 94.0724 35.5355C94.6634 35.1491 95.3527 34.956 96.1406 34.956C96.5952 34.956 97.044 35.0317 97.4872 35.1832C97.9304 35.3348 98.3338 35.581 98.6974 35.9219C99.0611 36.259 99.3509 36.706 99.5668 37.2628C99.7827 37.8196 99.8906 38.5052 99.8906 39.3196V39.8878H93.1634V38.7287H98.527C98.527 38.2363 98.4285 37.7969 98.2315 37.4105C98.0384 37.0241 97.7618 36.7192 97.402 36.4957C97.0459 36.2723 96.6255 36.1605 96.1406 36.1605C95.6065 36.1605 95.1444 36.2931 94.7543 36.5582C94.3679 36.8196 94.0705 37.1605 93.8622 37.581C93.6539 38.0014 93.5497 38.4522 93.5497 38.9332V39.706C93.5497 40.3651 93.6634 40.9238 93.8906 41.3821C94.1217 41.8366 94.4418 42.1832 94.8509 42.4219C95.2599 42.6567 95.7353 42.7741 96.277 42.7741C96.6293 42.7741 96.9474 42.7249 97.2315 42.6264C97.5194 42.5241 97.7675 42.3726 97.9759 42.1719C98.1842 41.9673 98.3452 41.7135 98.4588 41.4105L99.7543 41.7741C99.6179 42.2135 99.3887 42.5999 99.0668 42.9332C98.7448 43.2628 98.3471 43.5204 97.8736 43.706C97.4001 43.8878 96.8679 43.9787 96.277 43.9787ZM106.43 43.7969V35.0696H107.771V43.7969H106.43ZM107.112 33.6151C106.851 33.6151 106.625 33.526 106.436 33.348C106.25 33.17 106.158 32.956 106.158 32.706C106.158 32.456 106.25 32.242 106.436 32.0639C106.625 31.8859 106.851 31.7969 107.112 31.7969C107.374 31.7969 107.597 31.8859 107.783 32.0639C107.972 32.242 108.067 32.456 108.067 32.706C108.067 32.956 107.972 33.17 107.783 33.348C107.597 33.526 107.374 33.6151 107.112 33.6151ZM111.568 38.5469V43.7969H110.227V35.0696H111.523V36.4332H111.636C111.841 35.9901 112.152 35.634 112.568 35.3651C112.985 35.0923 113.523 34.956 114.182 34.956C114.773 34.956 115.29 35.0772 115.733 35.3196C116.176 35.5582 116.521 35.9219 116.767 36.4105C117.013 36.8954 117.136 37.509 117.136 38.2514V43.7969H115.795V38.3423C115.795 37.6567 115.617 37.1226 115.261 36.7401C114.905 36.3537 114.417 36.1605 113.795 36.1605C113.367 36.1605 112.985 36.2533 112.648 36.4389C112.314 36.6245 112.051 36.8954 111.858 37.2514C111.665 37.6075 111.568 38.0393 111.568 38.5469ZM126.411 35.0696L123.183 43.7969H121.82L118.592 35.0696H120.047L122.456 42.0241H122.547L124.956 35.0696H126.411ZM131.527 43.9787C130.686 43.9787 129.961 43.7931 129.351 43.4219C128.745 43.0469 128.277 42.5241 127.947 41.8537C127.622 41.1795 127.459 40.3954 127.459 39.5014C127.459 38.6075 127.622 37.8196 127.947 37.1378C128.277 36.4522 128.735 35.9181 129.322 35.5355C129.913 35.1491 130.603 34.956 131.391 34.956C131.845 34.956 132.294 35.0317 132.737 35.1832C133.18 35.3348 133.584 35.581 133.947 35.9219C134.311 36.259 134.601 36.706 134.817 37.2628C135.033 37.8196 135.141 38.5052 135.141 39.3196V39.8878H128.413V38.7287H133.777C133.777 38.2363 133.679 37.7969 133.482 37.4105C133.288 37.0241 133.012 36.7192 132.652 36.4957C132.296 36.2723 131.875 36.1605 131.391 36.1605C130.857 36.1605 130.394 36.2931 130.004 36.5582C129.618 36.8196 129.321 37.1605 129.112 37.581C128.904 38.0014 128.8 38.4522 128.8 38.9332V39.706C128.8 40.3651 128.913 40.9238 129.141 41.3821C129.372 41.8366 129.692 42.1832 130.101 42.4219C130.51 42.6567 130.985 42.7741 131.527 42.7741C131.879 42.7741 132.197 42.7249 132.482 42.6264C132.769 42.5241 133.018 42.3726 133.226 42.1719C133.434 41.9673 133.595 41.7135 133.709 41.4105L135.004 41.7741C134.868 42.2135 134.639 42.5999 134.317 42.9332C133.995 43.2628 133.597 43.5204 133.124 43.706C132.65 43.8878 132.118 43.9787 131.527 43.9787ZM143.362 37.0241L142.158 37.3651C142.082 37.1643 141.97 36.9692 141.822 36.7798C141.679 36.5866 141.482 36.4276 141.232 36.3026C140.982 36.1776 140.661 36.1151 140.271 36.1151C139.737 36.1151 139.292 36.2382 138.936 36.4844C138.584 36.7268 138.408 37.0355 138.408 37.4105C138.408 37.7438 138.529 38.0071 138.771 38.2003C139.014 38.3935 139.393 38.5545 139.908 38.6832L141.203 39.0014C141.983 39.1908 142.565 39.4806 142.947 39.8707C143.33 40.2571 143.521 40.7552 143.521 41.3651C143.521 41.8651 143.377 42.312 143.089 42.706C142.805 43.0999 142.408 43.4105 141.896 43.6378C141.385 43.8651 140.79 43.9787 140.112 43.9787C139.222 43.9787 138.485 43.7855 137.902 43.3991C137.319 43.0128 136.949 42.4484 136.794 41.706L138.067 41.3878C138.188 41.8575 138.417 42.2098 138.754 42.4446C139.095 42.6795 139.54 42.7969 140.089 42.7969C140.714 42.7969 141.211 42.6643 141.578 42.3991C141.949 42.1302 142.135 41.8082 142.135 41.4332C142.135 41.1302 142.029 40.8764 141.817 40.6719C141.605 40.4635 141.279 40.3082 140.839 40.206L139.385 39.8651C138.586 39.6757 137.999 39.3821 137.624 38.9844C137.252 38.5829 137.067 38.081 137.067 37.4787C137.067 36.9863 137.205 36.5507 137.482 36.1719C137.762 35.7931 138.143 35.4957 138.624 35.2798C139.108 35.0639 139.658 34.956 140.271 34.956C141.135 34.956 141.813 35.1454 142.305 35.5241C142.802 35.9029 143.154 36.4029 143.362 37.0241ZM149.335 35.0696V36.206H144.812V35.0696H149.335ZM146.131 32.9787H147.472V41.2969C147.472 41.6757 147.527 41.9598 147.636 42.1491C147.75 42.3348 147.894 42.4598 148.068 42.5241C148.246 42.5848 148.434 42.6151 148.631 42.6151C148.778 42.6151 148.9 42.6075 148.994 42.5923C149.089 42.5734 149.165 42.5582 149.222 42.5469L149.494 43.7514C149.403 43.7855 149.277 43.8196 149.114 43.8537C148.951 43.8916 148.744 43.9105 148.494 43.9105C148.116 43.9105 147.744 43.8291 147.381 43.6662C147.021 43.5033 146.722 43.2552 146.483 42.9219C146.248 42.5885 146.131 42.1681 146.131 41.6605V32.9787ZM154.804 43.9787C154.016 43.9787 153.325 43.7912 152.73 43.4162C152.139 43.0412 151.677 42.5166 151.344 41.8423C151.014 41.1681 150.849 40.3802 150.849 39.4787C150.849 38.5696 151.014 37.776 151.344 37.098C151.677 36.42 152.139 35.8935 152.73 35.5185C153.325 35.1435 154.016 34.956 154.804 34.956C155.592 34.956 156.281 35.1435 156.872 35.5185C157.467 35.8935 157.929 36.42 158.259 37.098C158.592 37.776 158.759 38.5696 158.759 39.4787C158.759 40.3802 158.592 41.1681 158.259 41.8423C157.929 42.5166 157.467 43.0412 156.872 43.4162C156.281 43.7912 155.592 43.9787 154.804 43.9787ZM154.804 42.7741C155.402 42.7741 155.895 42.6207 156.281 42.3139C156.668 42.0071 156.954 41.6037 157.139 41.1037C157.325 40.6037 157.418 40.062 157.418 39.4787C157.418 38.8954 157.325 38.3518 157.139 37.848C156.954 37.3442 156.668 36.937 156.281 36.6264C155.895 36.3158 155.402 36.1605 154.804 36.1605C154.205 36.1605 153.713 36.3158 153.327 36.6264C152.94 36.937 152.654 37.3442 152.469 37.848C152.283 38.3518 152.19 38.8954 152.19 39.4787C152.19 40.062 152.283 40.6037 152.469 41.1037C152.654 41.6037 152.94 42.0071 153.327 42.3139C153.713 42.6207 154.205 42.7741 154.804 42.7741ZM160.805 43.7969V35.0696H162.101V36.3878H162.192C162.351 35.956 162.639 35.6056 163.055 35.3366C163.472 35.0677 163.942 34.9332 164.464 34.9332C164.563 34.9332 164.686 34.9351 164.834 34.9389C164.982 34.9427 165.093 34.9484 165.169 34.956V36.3196C165.124 36.3082 165.019 36.2912 164.857 36.2685C164.697 36.242 164.529 36.2287 164.351 36.2287C163.927 36.2287 163.548 36.3177 163.214 36.4957C162.885 36.67 162.624 36.9124 162.43 37.223C162.241 37.5298 162.146 37.8802 162.146 38.2741V43.7969H160.805ZM172.94 37.0241L171.736 37.3651C171.66 37.1643 171.548 36.9692 171.401 36.7798C171.257 36.5866 171.06 36.4276 170.81 36.3026C170.56 36.1776 170.24 36.1151 169.849 36.1151C169.315 36.1151 168.87 36.2382 168.514 36.4844C168.162 36.7268 167.986 37.0355 167.986 37.4105C167.986 37.7438 168.107 38.0071 168.349 38.2003C168.592 38.3935 168.971 38.5545 169.486 38.6832L170.781 39.0014C171.562 39.1908 172.143 39.4806 172.526 39.8707C172.908 40.2571 173.099 40.7552 173.099 41.3651C173.099 41.8651 172.955 42.312 172.668 42.706C172.384 43.0999 171.986 43.4105 171.474 43.6378C170.963 43.8651 170.368 43.9787 169.69 43.9787C168.8 43.9787 168.063 43.7855 167.48 43.3991C166.897 43.0128 166.527 42.4484 166.372 41.706L167.645 41.3878C167.766 41.8575 167.995 42.2098 168.332 42.4446C168.673 42.6795 169.118 42.7969 169.668 42.7969C170.293 42.7969 170.789 42.6643 171.156 42.3991C171.527 42.1302 171.713 41.8082 171.713 41.4332C171.713 41.1302 171.607 40.8764 171.395 40.6719C171.183 40.4635 170.857 40.3082 170.418 40.206L168.963 39.8651C168.164 39.6757 167.577 39.3821 167.202 38.9844C166.83 38.5829 166.645 38.081 166.645 37.4787C166.645 36.9863 166.783 36.5507 167.06 36.1719C167.34 35.7931 167.721 35.4957 168.202 35.2798C168.687 35.0639 169.236 34.956 169.849 34.956C170.713 34.956 171.391 35.1454 171.884 35.5241C172.38 35.9029 172.732 36.4029 172.94 37.0241ZM176.095 43.8878C175.815 43.8878 175.574 43.7874 175.374 43.5866C175.173 43.3859 175.072 43.1454 175.072 42.8651C175.072 42.5848 175.173 42.3442 175.374 42.1435C175.574 41.9427 175.815 41.8423 176.095 41.8423C176.375 41.8423 176.616 41.9427 176.817 42.1435C177.018 42.3442 177.118 42.5848 177.118 42.8651C177.118 43.0507 177.071 43.2211 176.976 43.3764C176.885 43.5317 176.762 43.6567 176.607 43.7514C176.455 43.8423 176.285 43.8878 176.095 43.8878ZM176.095 37.4105C175.815 37.4105 175.574 37.3101 175.374 37.1094C175.173 36.9086 175.072 36.6681 175.072 36.3878C175.072 36.1075 175.173 35.867 175.374 35.6662C175.574 35.4654 175.815 35.3651 176.095 35.3651C176.375 35.3651 176.616 35.4654 176.817 35.6662C177.018 35.867 177.118 36.1075 177.118 36.3878C177.118 36.5734 177.071 36.7438 176.976 36.8991C176.885 37.0545 176.762 37.1795 176.607 37.2741C176.455 37.3651 176.285 37.4105 176.095 37.4105ZM187.729 43.956C186.948 43.956 186.259 43.8177 185.661 43.5412C185.066 43.2609 184.602 42.8764 184.268 42.3878C183.935 41.8954 183.77 41.3348 183.774 40.706C183.77 40.2135 183.867 39.759 184.064 39.3423C184.261 38.9219 184.53 38.5715 184.871 38.2912C185.215 38.0071 185.6 37.8272 186.024 37.7514V37.6832C185.467 37.5393 185.024 37.2268 184.695 36.7457C184.365 36.2609 184.202 35.7098 184.206 35.0923C184.202 34.5014 184.352 33.973 184.655 33.5071C184.958 33.0412 185.375 32.6738 185.905 32.4048C186.439 32.1359 187.047 32.0014 187.729 32.0014C188.403 32.0014 189.005 32.1359 189.536 32.4048C190.066 32.6738 190.482 33.0412 190.786 33.5071C191.092 33.973 191.248 34.5014 191.251 35.0923C191.248 35.7098 191.079 36.2609 190.746 36.7457C190.416 37.2268 189.979 37.5393 189.433 37.6832V37.7514C189.854 37.8272 190.232 38.0071 190.57 38.2912C190.907 38.5715 191.176 38.9219 191.376 39.3423C191.577 39.759 191.679 40.2135 191.683 40.706C191.679 41.3348 191.509 41.8954 191.172 42.3878C190.839 42.8764 190.375 43.2609 189.78 43.5412C189.189 43.8177 188.505 43.956 187.729 43.956ZM187.729 42.706C188.255 42.706 188.71 42.6207 189.092 42.4503C189.475 42.2798 189.77 42.0393 189.979 41.7287C190.187 41.4181 190.293 41.0545 190.297 40.6378C190.293 40.1984 190.179 39.8101 189.956 39.473C189.732 39.1359 189.428 38.8707 189.041 38.6776C188.659 38.4844 188.221 38.3878 187.729 38.3878C187.232 38.3878 186.789 38.4844 186.399 38.6776C186.013 38.8707 185.708 39.1359 185.484 39.473C185.265 39.8101 185.157 40.1984 185.161 40.6378C185.157 41.0545 185.257 41.4181 185.462 41.7287C185.67 42.0393 185.967 42.2798 186.354 42.4503C186.74 42.6207 187.198 42.706 187.729 42.706ZM187.729 37.1832C188.145 37.1832 188.515 37.0999 188.837 36.9332C189.162 36.7666 189.418 36.5336 189.604 36.2344C189.789 35.9351 189.884 35.5848 189.888 35.1832C189.884 34.7893 189.791 34.4465 189.609 34.1548C189.428 33.8594 189.176 33.6321 188.854 33.473C188.532 33.3101 188.157 33.2287 187.729 33.2287C187.293 33.2287 186.912 33.3101 186.587 33.473C186.261 33.6321 186.009 33.8594 185.831 34.1548C185.653 34.4465 185.566 34.7893 185.57 35.1832C185.566 35.5848 185.655 35.9351 185.837 36.2344C186.022 36.5336 186.278 36.7666 186.604 36.9332C186.929 37.0999 187.304 37.1832 187.729 37.1832ZM197.656 43.956C196.8 43.956 196.071 43.723 195.469 43.2571C194.866 42.7874 194.406 42.1075 194.088 41.2173C193.77 40.3234 193.611 39.2438 193.611 37.9787C193.611 36.7211 193.77 35.6473 194.088 34.7571C194.41 33.8632 194.872 33.1813 195.474 32.7116C196.08 32.2382 196.808 32.0014 197.656 32.0014C198.505 32.0014 199.23 32.2382 199.832 32.7116C200.438 33.1813 200.901 33.8632 201.219 34.7571C201.541 35.6473 201.702 36.7211 201.702 37.9787C201.702 39.2438 201.543 40.3234 201.224 41.2173C200.906 42.1075 200.446 42.7874 199.844 43.2571C199.241 43.723 198.512 43.956 197.656 43.956ZM197.656 42.706C198.505 42.706 199.164 42.2969 199.634 41.4787C200.103 40.6605 200.338 39.4938 200.338 37.9787C200.338 36.9711 200.23 36.1132 200.014 35.4048C199.802 34.6965 199.495 34.1567 199.094 33.7855C198.696 33.4143 198.217 33.2287 197.656 33.2287C196.815 33.2287 196.158 33.6435 195.685 34.473C195.211 35.2988 194.974 36.4673 194.974 37.9787C194.974 38.9863 195.08 39.8423 195.293 40.5469C195.505 41.2514 195.81 41.7874 196.207 42.1548C196.609 42.5223 197.092 42.706 197.656 42.706ZM209.793 41.6151V41.0014C209.793 40.5772 209.88 40.1889 210.054 39.8366C210.232 39.4806 210.49 39.1965 210.827 38.9844C211.168 38.7685 211.58 38.6605 212.065 38.6605C212.558 38.6605 212.971 38.7685 213.304 38.9844C213.637 39.1965 213.889 39.4806 214.06 39.8366C214.23 40.1889 214.315 40.5772 214.315 41.0014V41.6151C214.315 42.0393 214.228 42.4295 214.054 42.7855C213.884 43.1378 213.63 43.4219 213.293 43.6378C212.959 43.8499 212.55 43.956 212.065 43.956C211.573 43.956 211.158 43.8499 210.821 43.6378C210.484 43.4219 210.228 43.1378 210.054 42.7855C209.88 42.4295 209.793 42.0393 209.793 41.6151ZM210.952 41.0014V41.6151C210.952 41.9673 211.035 42.2836 211.202 42.5639C211.368 42.8404 211.656 42.9787 212.065 42.9787C212.463 42.9787 212.743 42.8404 212.906 42.5639C213.073 42.2836 213.156 41.9673 213.156 41.6151V41.0014C213.156 40.6491 213.077 40.3348 212.918 40.0582C212.759 39.7779 212.474 39.6378 212.065 39.6378C211.668 39.6378 211.382 39.7779 211.207 40.0582C211.037 40.3348 210.952 40.6491 210.952 41.0014ZM203.997 34.956V34.3423C203.997 33.9181 204.084 33.5298 204.259 33.1776C204.437 32.8215 204.694 32.5374 205.031 32.3253C205.372 32.1094 205.785 32.0014 206.27 32.0014C206.762 32.0014 207.175 32.1094 207.509 32.3253C207.842 32.5374 208.094 32.8215 208.264 33.1776C208.435 33.5298 208.52 33.9181 208.52 34.3423V34.956C208.52 35.3802 208.433 35.7704 208.259 36.1264C208.088 36.4787 207.834 36.7628 207.497 36.9787C207.164 37.1908 206.755 37.2969 206.27 37.2969C205.777 37.2969 205.363 37.1908 205.026 36.9787C204.688 36.7628 204.433 36.4787 204.259 36.1264C204.084 35.7704 203.997 35.3802 203.997 34.956ZM205.156 34.3423V34.956C205.156 35.3082 205.24 35.6245 205.406 35.9048C205.573 36.1813 205.861 36.3196 206.27 36.3196C206.668 36.3196 206.948 36.1813 207.111 35.9048C207.277 35.6245 207.361 35.3082 207.361 34.956V34.3423C207.361 33.9901 207.281 33.6757 207.122 33.3991C206.963 33.1188 206.679 32.9787 206.27 32.9787C205.872 32.9787 205.586 33.1188 205.412 33.3991C205.241 33.6757 205.156 33.9901 205.156 34.3423ZM204.429 43.7969L212.429 32.1605H213.724L205.724 43.7969H204.429Z" fill="#202020"/>
<rect y="67.7969" width="12" height="12" rx="6" fill="#FAA002"/>
<path d="M22.4091 79.7969V68.1605H29.3864V69.4105H23.8182V73.3423H28.8636V74.5923H23.8182V79.7969H22.4091ZM34.5227 79.9787C33.7348 79.9787 33.0436 79.7912 32.4489 79.4162C31.858 79.0412 31.3958 78.5166 31.0625 77.8423C30.733 77.1681 30.5682 76.3802 30.5682 75.4787C30.5682 74.5696 30.733 73.776 31.0625 73.098C31.3958 72.42 31.858 71.8935 32.4489 71.5185C33.0436 71.1435 33.7348 70.956 34.5227 70.956C35.3106 70.956 36 71.1435 36.5909 71.5185C37.1856 71.8935 37.6477 72.42 37.9773 73.098C38.3106 73.776 38.4773 74.5696 38.4773 75.4787C38.4773 76.3802 38.3106 77.1681 37.9773 77.8423C37.6477 78.5166 37.1856 79.0412 36.5909 79.4162C36 79.7912 35.3106 79.9787 34.5227 79.9787ZM34.5227 78.7741C35.1212 78.7741 35.6136 78.6207 36 78.3139C36.3864 78.0071 36.6723 77.6037 36.858 77.1037C37.0436 76.6037 37.1364 76.062 37.1364 75.4787C37.1364 74.8954 37.0436 74.3518 36.858 73.848C36.6723 73.3442 36.3864 72.937 36 72.6264C35.6136 72.3158 35.1212 72.1605 34.5227 72.1605C33.9242 72.1605 33.4318 72.3158 33.0455 72.6264C32.6591 72.937 32.3731 73.3442 32.1875 73.848C32.0019 74.3518 31.9091 74.8954 31.9091 75.4787C31.9091 76.062 32.0019 76.6037 32.1875 77.1037C32.3731 77.6037 32.6591 78.0071 33.0455 78.3139C33.4318 78.6207 33.9242 78.7741 34.5227 78.7741ZM46.0241 76.2287V71.0696H47.3651V79.7969H46.0241V78.3196H45.9332C45.7287 78.7628 45.4105 79.1397 44.9787 79.4503C44.5469 79.7571 44.0014 79.9105 43.3423 79.9105C42.7969 79.9105 42.312 79.7912 41.8878 79.5526C41.4635 79.3101 41.1302 78.9465 40.8878 78.4616C40.6454 77.973 40.5241 77.3575 40.5241 76.6151V71.0696H41.8651V76.5241C41.8651 77.1605 42.0431 77.6681 42.3991 78.0469C42.759 78.4257 43.2173 78.6151 43.7741 78.6151C44.1075 78.6151 44.4465 78.5298 44.7912 78.3594C45.1397 78.1889 45.4313 77.9276 45.6662 77.5753C45.9048 77.223 46.0241 76.7741 46.0241 76.2287ZM51.1619 74.5469V79.7969H49.821V71.0696H51.1165V72.4332H51.2301C51.4347 71.9901 51.7453 71.634 52.1619 71.3651C52.5786 71.0923 53.1165 70.956 53.7756 70.956C54.3665 70.956 54.8835 71.0772 55.3267 71.3196C55.7699 71.5582 56.1146 71.9219 56.3608 72.4105C56.607 72.8954 56.7301 73.509 56.7301 74.2514V79.7969H55.3892V74.3423C55.3892 73.6567 55.2112 73.1226 54.8551 72.7401C54.4991 72.3537 54.0104 72.1605 53.3892 72.1605C52.9612 72.1605 52.5786 72.2533 52.2415 72.4389C51.9081 72.6245 51.6449 72.8954 51.4517 73.2514C51.2585 73.6075 51.1619 74.0393 51.1619 74.5469ZM62.4759 79.9787C61.7486 79.9787 61.1065 79.795 60.5497 79.4276C59.9929 79.0563 59.5573 78.5336 59.2429 77.8594C58.9285 77.1813 58.7713 76.3802 58.7713 75.456C58.7713 74.5393 58.9285 73.7438 59.2429 73.0696C59.5573 72.3954 59.9948 71.8745 60.5554 71.5071C61.116 71.1397 61.7637 70.956 62.4986 70.956C63.0668 70.956 63.5156 71.0507 63.8452 71.2401C64.1785 71.4257 64.4323 71.6378 64.6065 71.8764C64.7846 72.1113 64.9228 72.3045 65.0213 72.456H65.1349V68.1605H66.4759V79.7969H65.1804V78.456H65.0213C64.9228 78.6151 64.7827 78.8158 64.6009 79.0582C64.419 79.2969 64.1596 79.5109 63.8224 79.7003C63.4853 79.8859 63.0365 79.9787 62.4759 79.9787ZM62.6577 78.7741C63.1955 78.7741 63.6501 78.634 64.0213 78.3537C64.3925 78.0696 64.6747 77.6776 64.8679 77.1776C65.0611 76.6738 65.1577 76.0923 65.1577 75.4332C65.1577 74.7817 65.063 74.2116 64.8736 73.723C64.6842 73.2306 64.4039 72.848 64.0327 72.5753C63.6615 72.2988 63.2031 72.1605 62.6577 72.1605C62.0895 72.1605 61.616 72.3063 61.2372 72.598C60.8622 72.8859 60.58 73.2779 60.3906 73.7741C60.205 74.2666 60.1122 74.8196 60.1122 75.4332C60.1122 76.0545 60.2069 76.6188 60.3963 77.1264C60.5895 77.6302 60.8736 78.0317 61.2486 78.331C61.6274 78.6264 62.0971 78.7741 62.6577 78.7741ZM71.6861 80.0014C71.133 80.0014 70.6312 79.8973 70.1804 79.6889C69.7296 79.4768 69.3717 79.1719 69.1065 78.7741C68.8414 78.3726 68.7088 77.8878 68.7088 77.3196C68.7088 76.8196 68.8073 76.4143 69.0043 76.1037C69.2012 75.7893 69.4645 75.5431 69.794 75.3651C70.1236 75.187 70.4872 75.0545 70.8849 74.9673C71.2865 74.8764 71.6899 74.8045 72.0952 74.7514C72.6255 74.6832 73.0554 74.6321 73.3849 74.598C73.7183 74.5601 73.9607 74.4976 74.1122 74.4105C74.2675 74.3234 74.3452 74.1719 74.3452 73.956V73.9105C74.3452 73.3499 74.1918 72.9143 73.8849 72.6037C73.5819 72.2931 73.1217 72.1378 72.5043 72.1378C71.8641 72.1378 71.3622 72.2779 70.9986 72.5582C70.6349 72.8385 70.3793 73.1378 70.2315 73.456L68.9588 73.0014C69.1861 72.4711 69.4891 72.0582 69.8679 71.7628C70.2505 71.4635 70.6671 71.2552 71.1179 71.1378C71.5724 71.0166 72.0194 70.956 72.4588 70.956C72.7391 70.956 73.0611 70.9901 73.4247 71.0582C73.7921 71.1226 74.1463 71.2571 74.4872 71.4616C74.8319 71.6662 75.1179 71.9749 75.3452 72.3878C75.5724 72.8007 75.6861 73.3537 75.6861 74.0469V79.7969H74.3452V78.6151H74.277C74.1861 78.8045 74.0346 79.0071 73.8224 79.223C73.6103 79.4389 73.3281 79.6226 72.9759 79.7741C72.6236 79.9257 72.1937 80.0014 71.6861 80.0014ZM71.8906 78.7969C72.4209 78.7969 72.8679 78.6927 73.2315 78.4844C73.599 78.276 73.8755 78.0071 74.0611 77.6776C74.2505 77.348 74.3452 77.0014 74.3452 76.6378V75.4105C74.2884 75.4787 74.1634 75.5412 73.9702 75.598C73.7808 75.651 73.5611 75.6984 73.3111 75.7401C73.0649 75.7779 72.8243 75.812 72.5895 75.8423C72.3584 75.8688 72.1709 75.8916 72.027 75.9105C71.6785 75.956 71.3527 76.0298 71.0497 76.1321C70.7505 76.2306 70.508 76.3802 70.3224 76.581C70.1406 76.7779 70.0497 77.0469 70.0497 77.3878C70.0497 77.8537 70.2221 78.206 70.5668 78.4446C70.9152 78.6795 71.3565 78.7969 71.8906 78.7969ZM81.929 71.0696V72.206H77.4062V71.0696H81.929ZM78.7244 68.9787H80.0653V77.2969C80.0653 77.6757 80.1203 77.9598 80.2301 78.1491C80.3438 78.3348 80.4877 78.4598 80.6619 78.5241C80.84 78.5848 81.0275 78.6151 81.2244 78.6151C81.3722 78.6151 81.4934 78.6075 81.5881 78.5923C81.6828 78.5734 81.7585 78.5582 81.8153 78.5469L82.0881 79.7514C81.9972 79.7855 81.8703 79.8196 81.7074 79.8537C81.5445 79.8916 81.3381 79.9105 81.0881 79.9105C80.7093 79.9105 80.3381 79.8291 79.9744 79.6662C79.6146 79.5033 79.3153 79.2552 79.0767 78.9219C78.8419 78.5885 78.7244 78.1681 78.7244 77.6605V68.9787ZM83.946 79.7969V71.0696H85.2869V79.7969H83.946ZM84.6278 69.6151C84.3665 69.6151 84.1411 69.526 83.9517 69.348C83.7661 69.17 83.6733 68.956 83.6733 68.706C83.6733 68.456 83.7661 68.242 83.9517 68.0639C84.1411 67.8859 84.3665 67.7969 84.6278 67.7969C84.8892 67.7969 85.1127 67.8859 85.2983 68.0639C85.4877 68.242 85.5824 68.456 85.5824 68.706C85.5824 68.956 85.4877 69.17 85.2983 69.348C85.1127 69.526 84.8892 69.6151 84.6278 69.6151ZM91.2884 79.9787C90.5005 79.9787 89.8092 79.7912 89.2145 79.4162C88.6236 79.0412 88.1615 78.5166 87.8281 77.8423C87.4986 77.1681 87.3338 76.3802 87.3338 75.4787C87.3338 74.5696 87.4986 73.776 87.8281 73.098C88.1615 72.42 88.6236 71.8935 89.2145 71.5185C89.8092 71.1435 90.5005 70.956 91.2884 70.956C92.0762 70.956 92.7656 71.1435 93.3565 71.5185C93.9512 71.8935 94.4134 72.42 94.7429 73.098C95.0762 73.776 95.2429 74.5696 95.2429 75.4787C95.2429 76.3802 95.0762 77.1681 94.7429 77.8423C94.4134 78.5166 93.9512 79.0412 93.3565 79.4162C92.7656 79.7912 92.0762 79.9787 91.2884 79.9787ZM91.2884 78.7741C91.8868 78.7741 92.3793 78.6207 92.7656 78.3139C93.152 78.0071 93.438 77.6037 93.6236 77.1037C93.8092 76.6037 93.902 76.062 93.902 75.4787C93.902 74.8954 93.8092 74.3518 93.6236 73.848C93.438 73.3442 93.152 72.937 92.7656 72.6264C92.3793 72.3158 91.8868 72.1605 91.2884 72.1605C90.6899 72.1605 90.1974 72.3158 89.8111 72.6264C89.4247 72.937 89.1387 73.3442 88.9531 73.848C88.7675 74.3518 88.6747 74.8954 88.6747 75.4787C88.6747 76.062 88.7675 76.6037 88.9531 77.1037C89.1387 77.6037 89.4247 78.0071 89.8111 78.3139C90.1974 78.6207 90.6899 78.7741 91.2884 78.7741ZM98.6307 74.5469V79.7969H97.2898V71.0696H98.5852V72.4332H98.6989C98.9034 71.9901 99.214 71.634 99.6307 71.3651C100.047 71.0923 100.585 70.956 101.244 70.956C101.835 70.956 102.352 71.0772 102.795 71.3196C103.239 71.5582 103.583 71.9219 103.83 72.4105C104.076 72.8954 104.199 73.509 104.199 74.2514V79.7969H102.858V74.3423C102.858 73.6567 102.68 73.1226 102.324 72.7401C101.968 72.3537 101.479 72.1605 100.858 72.1605C100.43 72.1605 100.047 72.2533 99.7102 72.4389C99.3769 72.6245 99.1136 72.8954 98.9205 73.2514C98.7273 73.6075 98.6307 74.0393 98.6307 74.5469ZM107.626 79.8878C107.346 79.8878 107.106 79.7874 106.905 79.5866C106.704 79.3859 106.604 79.1454 106.604 78.8651C106.604 78.5848 106.704 78.3442 106.905 78.1435C107.106 77.9427 107.346 77.8423 107.626 77.8423C107.907 77.8423 108.147 77.9427 108.348 78.1435C108.549 78.3442 108.649 78.5848 108.649 78.8651C108.649 79.0507 108.602 79.2211 108.507 79.3764C108.416 79.5317 108.293 79.6567 108.138 79.7514C107.986 79.8423 107.816 79.8878 107.626 79.8878ZM107.626 73.4105C107.346 73.4105 107.106 73.3101 106.905 73.1094C106.704 72.9086 106.604 72.6681 106.604 72.3878C106.604 72.1075 106.704 71.867 106.905 71.6662C107.106 71.4654 107.346 71.3651 107.626 71.3651C107.907 71.3651 108.147 71.4654 108.348 71.6662C108.549 71.867 108.649 72.1075 108.649 72.3878C108.649 72.5734 108.602 72.7438 108.507 72.8991C108.416 73.0545 108.293 73.1795 108.138 73.2741C107.986 73.3651 107.816 73.4105 107.626 73.4105ZM115.533 79.7969V78.7741L119.374 74.5696C119.824 74.0772 120.196 73.6491 120.487 73.2855C120.779 72.9181 120.995 72.5734 121.135 72.2514C121.279 71.9257 121.351 71.5848 121.351 71.2287C121.351 70.8196 121.252 70.4654 121.055 70.1662C120.862 69.867 120.597 69.6359 120.26 69.473C119.923 69.3101 119.544 69.2287 119.124 69.2287C118.677 69.2287 118.286 69.3215 117.953 69.5071C117.624 69.6889 117.368 69.9446 117.186 70.2741C117.008 70.6037 116.919 70.9901 116.919 71.4332H115.578C115.578 70.7514 115.735 70.1529 116.05 69.6378C116.364 69.1226 116.792 68.7211 117.334 68.4332C117.879 68.1454 118.491 68.0014 119.169 68.0014C119.851 68.0014 120.455 68.1454 120.982 68.4332C121.508 68.7211 121.921 69.1094 122.22 69.598C122.519 70.0866 122.669 70.6302 122.669 71.2287C122.669 71.6567 122.591 72.0753 122.436 72.4844C122.285 72.8897 122.019 73.3423 121.641 73.8423C121.266 74.3385 120.745 74.9446 120.078 75.6605L117.464 78.456V78.5469H122.874V79.7969H115.533ZM129.016 79.956C128.16 79.956 127.43 79.723 126.828 79.2571C126.226 78.7874 125.766 78.1075 125.447 77.2173C125.129 76.3234 124.97 75.2438 124.97 73.9787C124.97 72.7211 125.129 71.6473 125.447 70.7571C125.769 69.8632 126.232 69.1813 126.834 68.7116C127.44 68.2382 128.167 68.0014 129.016 68.0014C129.864 68.0014 130.589 68.2382 131.192 68.7116C131.798 69.1813 132.26 69.8632 132.578 70.7571C132.9 71.6473 133.061 72.7211 133.061 73.9787C133.061 75.2438 132.902 76.3234 132.584 77.2173C132.266 78.1075 131.805 78.7874 131.203 79.2571C130.601 79.723 129.872 79.956 129.016 79.956ZM129.016 78.706C129.864 78.706 130.523 78.2969 130.993 77.4787C131.463 76.6605 131.697 75.4938 131.697 73.9787C131.697 72.9711 131.589 72.1132 131.374 71.4048C131.161 70.6965 130.855 70.1567 130.453 69.7855C130.055 69.4143 129.576 69.2287 129.016 69.2287C128.175 69.2287 127.518 69.6435 127.044 70.473C126.571 71.2988 126.334 72.4673 126.334 73.9787C126.334 74.9863 126.44 75.8423 126.652 76.5469C126.864 77.2514 127.169 77.7874 127.567 78.1548C127.968 78.5223 128.451 78.706 129.016 78.706ZM141.152 77.6151V77.0014C141.152 76.5772 141.239 76.1889 141.413 75.8366C141.591 75.4806 141.849 75.1965 142.186 74.9844C142.527 74.7685 142.94 74.6605 143.425 74.6605C143.917 74.6605 144.33 74.7685 144.663 74.9844C144.997 75.1965 145.249 75.4806 145.419 75.8366C145.589 76.1889 145.675 76.5772 145.675 77.0014V77.6151C145.675 78.0393 145.588 78.4295 145.413 78.7855C145.243 79.1378 144.989 79.4219 144.652 79.6378C144.319 79.8499 143.91 79.956 143.425 79.956C142.932 79.956 142.518 79.8499 142.18 79.6378C141.843 79.4219 141.588 79.1378 141.413 78.7855C141.239 78.4295 141.152 78.0393 141.152 77.6151ZM142.311 77.0014V77.6151C142.311 77.9673 142.394 78.2836 142.561 78.5639C142.728 78.8404 143.016 78.9787 143.425 78.9787C143.822 78.9787 144.103 78.8404 144.266 78.5639C144.432 78.2836 144.516 77.9673 144.516 77.6151V77.0014C144.516 76.6491 144.436 76.3348 144.277 76.0582C144.118 75.7779 143.834 75.6378 143.425 75.6378C143.027 75.6378 142.741 75.7779 142.567 76.0582C142.396 76.3348 142.311 76.6491 142.311 77.0014ZM135.357 70.956V70.3423C135.357 69.9181 135.444 69.5298 135.618 69.1776C135.796 68.8215 136.054 68.5374 136.391 68.3253C136.732 68.1094 137.144 68.0014 137.629 68.0014C138.122 68.0014 138.535 68.1094 138.868 68.3253C139.201 68.5374 139.453 68.8215 139.624 69.1776C139.794 69.5298 139.879 69.9181 139.879 70.3423V70.956C139.879 71.3802 139.792 71.7704 139.618 72.1264C139.447 72.4787 139.194 72.7628 138.857 72.9787C138.523 73.1908 138.114 73.2969 137.629 73.2969C137.137 73.2969 136.722 73.1908 136.385 72.9787C136.048 72.7628 135.792 72.4787 135.618 72.1264C135.444 71.7704 135.357 71.3802 135.357 70.956ZM136.516 70.3423V70.956C136.516 71.3082 136.599 71.6245 136.766 71.9048C136.932 72.1813 137.22 72.3196 137.629 72.3196C138.027 72.3196 138.307 72.1813 138.47 71.9048C138.637 71.6245 138.72 71.3082 138.72 70.956V70.3423C138.72 69.9901 138.641 69.6757 138.482 69.3991C138.322 69.1188 138.038 68.9787 137.629 68.9787C137.232 68.9787 136.946 69.1188 136.771 69.3991C136.601 69.6757 136.516 69.9901 136.516 70.3423ZM135.788 79.7969L143.788 68.1605H145.084L137.084 79.7969H135.788Z" fill="#202020"/>
</svg>
